<?xml version="1.0" encoding="UTF-8"?>
<svg width="1440" height="800" viewBox="0 0 1440 800" fill="none" xmlns="http://www.w3.org/2000/svg">
  <g opacity="0.3">
    <circle cx="100" cy="100" r="10" fill="white"/>
    <circle cx="300" cy="200" r="8" fill="white"/>
    <circle cx="500" cy="150" r="12" fill="white"/>
    <circle cx="700" cy="300" r="7" fill="white"/>
    <circle cx="900" cy="100" r="9" fill="white"/>
    <circle cx="1100" cy="250" r="11" fill="white"/>
    <circle cx="1300" cy="150" r="8" fill="white"/>
    <circle cx="200" cy="350" r="10" fill="white"/>
    <circle cx="400" cy="400" r="7" fill="white"/>
    <circle cx="600" cy="450" r="12" fill="white"/>
    <circle cx="800" cy="350" r="9" fill="white"/>
    <circle cx="1000" cy="400" r="11" fill="white"/>
    <circle cx="1200" cy="450" r="8" fill="white"/>
    <circle cx="1400" cy="350" r="10" fill="white"/>
    <circle cx="150" cy="550" r="8" fill="white"/>
    <circle cx="350" cy="600" r="12" fill="white"/>
    <circle cx="550" cy="550" r="7" fill="white"/>
    <circle cx="750" cy="600" r="9" fill="white"/>
    <circle cx="950" cy="550" r="11" fill="white"/>
    <circle cx="1150" cy="600" r="8" fill="white"/>
    <circle cx="1350" cy="550" r="10" fill="white"/>
    <circle cx="250" cy="700" r="7" fill="white"/>
    <circle cx="450" cy="750" r="12" fill="white"/>
    <circle cx="650" cy="700" r="9" fill="white"/>
    <circle cx="850" cy="750" r="11" fill="white"/>
    <circle cx="1050" cy="700" r="8" fill="white"/>
    <circle cx="1250" cy="750" r="10" fill="white"/>
  </g>
</svg>
